#!OML:ASF H:\Dans Jumps\Project 1\Capture day 1\Session 1\subject.ASF
:FULLY-SPECIFIED
:DEGREES
109
root 0.598474 17.4544 -14.1523 5.62261 -1.13635 -1.19625
lowerback -0.0141694 -0.501576 0.0363622
upperback 4.09618 -0.730709 1.64197
thorax 4.24709 -0.396355 1.64589
lowerneck -13.2164 0.737182 -1.97449
upperneck 33.2383 1.4816 0.396634
head 13.3616 0.44569 0.724311
rclavicle 1.68967e-015 -7.95139e-016
rhumerus -24.3014 -15.5398 -79.7066
rradius 25.0985
rwrist 30.8469
rhand -18.3724 -26.5234
rfingers 7.12502
rthumb 7.91094 -56.3554
lclavicle 1.68967e-015 -7.95139e-016
lhumerus -20.3215 1.83912 86.3111
lradius 18.4352
lwrist 2.29299
lhand -25.5384 -3.13869
lfingers 7.12502
lthumb 0.991616 26.8387
rfemur -15.9976 -1.37097 19.5265
rtibia 26.9179
rfoot -15.1616 -2.94322
rtoes 9.7774
lfemur -14.7154 7.57876 -19.4534
ltibia 24.5406
lfoot -13.1638 5.27731
ltoes 3.14751
110
root 0.601475 17.453 -14.1525 5.61663 -1.15852 -1.19941
lowerback -0.00668532 -0.500826 0.0468143
upperback 4.09794 -0.729945 1.64268
thorax 4.24453 -0.395619 1.64084
lowerneck -13.2047 0.739655 -1.97774
upperneck 33.2337 1.48538 0.397159
head 13.3569 0.447026 0.725502
rclavicle -5.76476e-015 1.19271e-014
rhumerus -24.3034 -15.5833 -79.677
rradius 25.0909
rwrist 30.868
rhand -18.3866 -26.5224
rfingers 7.12502
rthumb 7.89724 -56.3549
lclavicle -5.76476e-015 1.19271e-014
lhumerus -20.33 1.81862 86.3528
lradius 18.4611
lwrist 2.31858
lhand -25.5343 -3.11904
lfingers 7.12502
lthumb 0.995504 26.8584
rfemur -16.0175 -1.35325 19.519
rtibia 26.9634
rfoot -15.1795 -2.9517
rtoes 9.72939
lfemur -14.7315 7.59886 -19.4612
ltibia 24.5865
lfoot -13.1828 5.28458
ltoes 3.13214
111
root 0.604435 17.4515 -14.1525 5.61124 -1.18013 -1.20378
lowerback 0.00102359 -0.498968 0.0591501
upperback 4.09819 -0.727712 1.64318
thorax 4.24019 -0.394066 1.63459
lowerneck -13.1959 0.740924 -1.97856
upperneck 33.2322 1.48734 0.396257
head 13.3543 0.447648 0.725488
rclavicle 6.75868e-015 9.93923e-015
rhumerus -24.3115 -15.6285 -79.6463
rradius 25.0849
rwrist 30.8886
rhand -18.4048 -26.5149
rfingers 7.12502
rthumb 7.8796 -56.348
lclavicle 6.75868e-015 9.93923e-015
lhumerus -20.3415 1.78112 86.398
lradius 18.4898
lwrist 2.35677
lhand -25.5403 -3.12632
lfingers 7.12502
lthumb 0.989759 26.8511
rfemur -16.0363 -1.33388 19.5129
rtibia 27.0062
rfoot -15.1958 -2.96145
rtoes 9.67627
lfemur -14.7472 7.61648 -19.4675
ltibia 24.6316
lfoot -13.2037 5.29326
ltoes 3.1288
112
root 0.60737 17.4501 -14.1524 5.60601 -1.2025 -1.20766
lowerback 0.007901 -0.49639 0.0716603
upperback 4.09831 -0.724492 1.64281
thorax 4.23615 -0.391999 1.62735
lowerneck -13.1867 0.741482 -1.98104
upperneck 33.2304 1.48791 0.39774
head 13.3514 0.44778 0.726489
rclavicle 1.11319e-014 2.78299e-015
rhumerus -24.3202 -15.6817 -79.615
rradius 25.0757
rwrist 30.916
rhand -18.4231 -26.5036
rfingers 7.12502
rthumb 7.86197 -56.3374
lclavicle 1.11319e-014 2.78299e-015
lhumerus -20.3549 1.73676 86.4434
lradius 18.5227
lwrist 2.39882
lhand -25.5528 -3.16545
lfingers 7.12502
lthumb 0.977627 26.8121
rfemur -16.0543 -1.3142 19.506
rtibia 27.0462
rfoot -15.2097 -2.97082
rtoes 9.62648
lfemur -14.7613 7.63288 -19.4742
ltibia 24.6754
lfoot -13.2255 5.30353
ltoes 3.13261
113
root 0.610251 17.4487 -14.1522 5.60065 -1.22389 -1.21019
lowerback 0.0149175 -0.494334 0.0831842
upperback 4.09749 -0.721894 1.64145
thorax 4.23105 -0.390249 1.61964
lowerneck -13.1806 0.741804 -1.98212
upperneck 33.2303 1.4879 0.399034
head 13.3501 0.447776 0.727122
rclavicle 4.57205e-015 1.19271e-014
rhumerus -24.3309 -15.7358 -79.585
rradius 25.0665
rwrist 30.9452
rhand -18.4386 -26.4903
rfingers 7.12502
rthumb 7.84698 -56.3247
lclavicle 4.57205e-015 1.19271e-014
lhumerus -20.3734 1.6901 86.4877
lradius 18.56
lwrist 2.44754
lhand -25.5655 -3.22248
lfingers 7.12502
lthumb 0.965396 26.7551
rfemur -16.0699 -1.29489 19.4978
rtibia 27.0833
rfoot -15.2232 -2.9793
rtoes 9.58044
lfemur -14.7737 7.64877 -19.4822
ltibia 24.7172
lfoot -13.2473 5.31356
ltoes 3.13652
114
root 0.613028 17.4475 -14.1518 5.59704 -1.24374 -1.21247
lowerback 0.0195676 -0.492693 0.0937868
upperback 4.09663 -0.719841 1.63986
thorax 4.22729 -0.388803 1.61216
lowerneck -13.1776 0.741827 -1.98178
upperneck 33.2296 1.48763 0.398889
head 13.3491 0.447643 0.726921
rclavicle 5.46658e-015 2.78299e-015
rhumerus -24.3399 -15.7862 -79.5578
rradius 25.0561
rwrist 30.9716
rhand -18.4537 -26.4741
rfingers 7.12502
rthumb 7.83242 -56.309
lclavicle 5.46658e-015 2.78299e-015
lhumerus -20.3921 1.64163 86.5318
lradius 18.5985
lwrist 2.4983
lhand -25.5751 -3.26367
lfingers 7.12502
lthumb 0.95613 26.7139
rfemur -16.0858 -1.2755 19.4895
rtibia 27.1177
rfoot -15.235 -2.98778
rtoes 9.54392
lfemur -14.7872 7.66457 -19.4903
ltibia 24.7577
lfoot -13.2691 5.32148
ltoes 3.14293
115
root 0.615684 17.4463 -14.1516 5.59379 -1.26018 -1.21475
lowerback 0.0233583 -0.492741 0.10343
upperback 4.09721 -0.720061 1.63853
thorax 4.2256 -0.388541 1.60539
lowerneck -13.1751 0.741804 -1.98259
upperneck 33.2232 1.48748 0.398954
head 13.3458 0.447508 0.726977
rclavicle -5.1684e-015 1.19271e-014
rhumerus -24.343 -15.836 -79.5335
rradius 25.0417
rwrist 31.0008
rhand -18.4684 -26.4557
rfingers 7.12502
rthumb 7.81829 -56.2912
lclavicle -5.1684e-015 1.19271e-014
lhumerus -20.4063 1.59696 86.5741
lradius 18.6337
lwrist 2.54522
lhand -25.5758 -3.29488
lfingers 7.12502
lthumb 0.95541 26.6827
rfemur -16.1003 -1.256 19.482
rtibia 27.1494
rfoot -15.2458 -2.99941
rtoes 9.50427
lfemur -14.8008 7.67988 -19.4979
ltibia 24.7968
lfoot -13.2915 5.32583
ltoes 3.14929
116
root 0.618133 17.4451 -14.1514 5.59195 -1.27349 -1.21829
lowerback 0.0258212 -0.493999 0.111815
upperback 4.0989 -0.72194 1.63833
thorax 4.2259 -0.389183 1.60043
lowerneck -13.1739 0.741925 -1.98314
upperneck 33.2128 1.48802 0.397377
head 13.341 0.447532 0.726419
rclavicle -7.15625e-015 9.14409e-015
rhumerus -24.342 -15.8798 -79.512
rradius 25.0261
rwrist 31.0293
rhand -18.4799 -26.4367
rfingers 7.12502
rthumb 7.8072 -56.2725
lclavicle -7.15625e-015 9.14409e-015
lhumerus -20.4161 1.55983 86.6149
lradius 18.6656
lwrist 2.58502
lhand -25.5674 -3.30463
lfingers 7.12502
lthumb 0.963585 26.6729
rfemur -16.1148 -1.23525 19.4765
rtibia 27.1788
rfoot -15.2567 -3.01233
rtoes 9.48484
lfemur -14.8165 7.69511 -19.5036
ltibia 24.8349
lfoot -13.3132 5.32769
ltoes 3.14993
117
root 0.620409 17.4441 -14.1514 5.59156 -1.28346 -1.22058
lowerback 0.0288192 -0.495587 0.117379
upperback 4.09987 -0.724168 1.63801
thorax 4.2252 -0.390092 1.59692
lowerneck -13.1736 0.741613 -1.98378
upperneck 33.201 1.48746 0.39733
head 13.3359 0.447288 0.726309
rclavicle -7.45443e-015 -1.98785e-014
rhumerus -24.3412 -15.9228 -79.4915
rradius 25.0095
rwrist 31.0582
rhand -18.4912 -26.4175
rfingers 7.12502
rthumb 7.79622 -56.2537
lclavicle -7.45443e-015 -1.98785e-014
lhumerus -20.4222 1.52249 86.6548
lradius 18.6897
lwrist 2.61626
lhand -25.555 -3.31782
lfingers 7.12502
lthumb 0.975568 26.6597
rfemur -16.1295 -1.21625 19.4703
rtibia 27.2056
rfoot -15.2673 -3.02617
rtoes 9.46472
lfemur -14.834 7.70872 -19.5101
ltibia 24.8711
lfoot -13.3339 5.32729
ltoes 3.1517
